<?xml version="1.0" encoding="UTF-8" standalone="no"?>
<!-- Created with Inkscape (http://www.inkscape.org/) -->

<svg
   xmlns:dc="http://purl.org/dc/elements/1.1/"
   xmlns:cc="http://creativecommons.org/ns#"
   xmlns:rdf="http://www.w3.org/1999/02/22-rdf-syntax-ns#"
   xmlns:svg="http://www.w3.org/2000/svg"
   xmlns="http://www.w3.org/2000/svg"
   xmlns:sodipodi="http://sodipodi.sourceforge.net/DTD/sodipodi-0.dtd"
   xmlns:inkscape="http://www.inkscape.org/namespaces/inkscape"
   width="210mm"
   height="297mm"
   viewBox="0 0 744.09448819 1052.3622047"
   id="svg2"
   version="1.1"
   inkscape:version="0.91 r"
   sodipodi:docname="cell_wall4.svg">
  <defs
     id="defs4" />
  <sodipodi:namedview
     id="base"
     pagecolor="#ffffff"
     bordercolor="#666666"
     borderopacity="1.0"
     inkscape:pageopacity="0.0"
     inkscape:pageshadow="2"
     inkscape:zoom="0.49497475"
     inkscape:cx="222.14708"
     inkscape:cy="627.3146"
     inkscape:document-units="px"
     inkscape:current-layer="layer1"
     showgrid="false"
     inkscape:window-width="1366"
     inkscape:window-height="713"
     inkscape:window-x="0"
     inkscape:window-y="30"
     inkscape:window-maximized="1" />
  <metadata
     id="metadata7">
    <rdf:RDF>
      <cc:Work
         rdf:about="">
        <dc:format>image/svg+xml</dc:format>
        <dc:type
           rdf:resource="http://purl.org/dc/dcmitype/StillImage" />
        <dc:title></dc:title>
      </cc:Work>
    </rdf:RDF>
  </metadata>
  <g
     inkscape:label="Capa 1"
     inkscape:groupmode="layer"
     id="layer1">
    <g
       id="g4555">
      <path
         style="fill:#000000;fill-opacity:1;stroke:#dece9c;stroke-width:30;stroke-miterlimit:4;stroke-dasharray:none;stroke-opacity:1"
         d="M 191.794,250.09639 A 53.222588,52.631229 0 0 1 138.57141,302.72762 53.222588,52.631229 0 0 1 85.348824,250.09639 53.222588,52.631229 0 0 1 138.57141,197.46516 53.222588,52.631229 0 0 1 191.794,250.09639 Z"
         id="path4136" />
      <path
         style="fill:#000000;fill-opacity:1;stroke:#dece9c;stroke-width:30;stroke-miterlimit:4;stroke-dasharray:none;stroke-opacity:1"
         d="m 170.36544,372.36218 a 53.222588,52.631229 0 0 1 -53.22259,52.63123 53.222588,52.631229 0 0 1 -53.222585,-52.63123 53.222588,52.631229 0 0 1 53.222585,-52.63123 53.222588,52.631229 0 0 1 53.22259,52.63123 z"
         id="path4136-7" />
      <path
         style="fill:#000000;fill-opacity:1;stroke:#dece9c;stroke-width:30;stroke-miterlimit:4;stroke-dasharray:none;stroke-opacity:1"
         d="m 450.36544,378.07648 a 53.222588,52.631229 0 0 1 -53.22259,52.63123 53.222588,52.631229 0 0 1 -53.22258,-52.63123 53.222588,52.631229 0 0 1 53.22258,-52.63123 53.222588,52.631229 0 0 1 53.22259,52.63123 z"
         id="path4136-6" />
      <path
         style="fill:#000000;fill-opacity:1;stroke:#dece9c;stroke-width:30;stroke-miterlimit:4;stroke-dasharray:none;stroke-opacity:1"
         d="m 384.65115,478.07648 a 53.222588,52.631229 0 0 1 -53.22259,52.63123 53.222588,52.631229 0 0 1 -53.22259,-52.63123 53.222588,52.631229 0 0 1 53.22259,-52.63123 53.222588,52.631229 0 0 1 53.22259,52.63123 z"
         id="path4136-1" />
      <path
         style="fill:#000000;fill-opacity:1;stroke:#dece9c;stroke-width:30;stroke-miterlimit:4;stroke-dasharray:none;stroke-opacity:1"
         d="m 398.93688,255.21935 a 53.222588,52.631229 0 0 1 -53.22259,52.63122 53.222588,52.631229 0 0 1 -53.22258,-52.63122 53.222588,52.631229 0 0 1 53.22258,-52.63123 53.222588,52.631229 0 0 1 53.22259,52.63123 z"
         id="path4136-70" />
      <path
         style="fill:#000000;fill-opacity:1;stroke:#dece9c;stroke-width:30;stroke-miterlimit:4;stroke-dasharray:none;stroke-opacity:1"
         d="m 276.07973,360.93362 a 53.222588,52.631229 0 0 1 -53.22258,52.63123 53.222588,52.631229 0 0 1 -53.22259,-52.63123 53.222588,52.631229 0 0 1 53.22259,-52.63123 53.222588,52.631229 0 0 1 53.22258,52.63123 z"
         id="path4136-9" />
      <path
         style="fill:#000000;fill-opacity:1;stroke:#dece9c;stroke-width:30;stroke-miterlimit:4;stroke-dasharray:none;stroke-opacity:1"
         d="m 276.97604,617.15558 a 53.222588,52.631229 0 0 1 -53.22259,52.63123 53.222588,52.631229 0 0 1 -53.22259,-52.63123 53.222588,52.631229 0 0 1 53.22259,-52.63123 53.222588,52.631229 0 0 1 53.22259,52.63123 z"
         id="path4136-5" />
      <path
         style="fill:#000000;fill-opacity:1;stroke:#dece9c;stroke-width:30;stroke-miterlimit:4;stroke-dasharray:none;stroke-opacity:1"
         d="M 373.22259,640.93365 A 53.222588,52.631229 0 0 1 320,693.56488 53.222588,52.631229 0 0 1 266.77741,640.93365 53.222588,52.631229 0 0 1 320,588.30243 a 53.222588,52.631229 0 0 1 53.22259,52.63122 z"
         id="path4136-4" />
      <path
         style="fill:#000000;fill-opacity:1;stroke:#dece9c;stroke-width:30;stroke-miterlimit:4;stroke-dasharray:none;stroke-opacity:1"
         d="m 650.36547,629.50507 a 53.222588,52.631229 0 0 1 -53.22259,52.63123 53.222588,52.631229 0 0 1 -53.22258,-52.63123 53.222588,52.631229 0 0 1 53.22258,-52.63123 53.222588,52.631229 0 0 1 53.22259,52.63123 z"
         id="path4136-93" />
      <path
         style="fill:#000000;fill-opacity:1;stroke:#dece9c;stroke-width:30;stroke-miterlimit:4;stroke-dasharray:none;stroke-opacity:1"
         d="m 671.794,469.50507 a 53.222588,52.631229 0 0 1 -53.22259,52.63123 53.222588,52.631229 0 0 1 -53.22259,-52.63123 53.222588,52.631229 0 0 1 53.22259,-52.63123 53.222588,52.631229 0 0 1 53.22259,52.63123 z"
         id="path4136-3" />
      <path
         style="fill:#000000;fill-opacity:1;stroke:#dece9c;stroke-width:30;stroke-miterlimit:4;stroke-dasharray:none;stroke-opacity:1"
         d="m 670.36547,335.21936 a 53.222588,52.631229 0 0 1 -53.22259,52.63123 53.222588,52.631229 0 0 1 -53.22258,-52.63123 53.222588,52.631229 0 0 1 53.22258,-52.63123 53.222588,52.631229 0 0 1 53.22259,52.63123 z"
         id="path4136-69" />
      <path
         style="fill:#000000;fill-opacity:1;stroke:#dece9c;stroke-width:30;stroke-miterlimit:4;stroke-dasharray:none;stroke-opacity:1"
         d="m 622.08123,266.50433 a 53.222588,52.631229 0 0 1 -53.22259,52.63123 53.222588,52.631229 0 0 1 -53.22259,-52.63123 53.222588,52.631229 0 0 1 53.22259,-52.63123 53.222588,52.631229 0 0 1 53.22259,52.63123 z"
         id="path4136-94" />
      <path
         style="fill:#000000;fill-opacity:1;stroke:#dece9c;stroke-width:30;stroke-miterlimit:4;stroke-dasharray:none;stroke-opacity:1"
         d="m 590.71209,191.32231 a 53.222588,52.631229 0 0 1 -53.22259,52.63123 53.222588,52.631229 0 0 1 -53.22259,-52.63123 53.222588,52.631229 0 0 1 53.22259,-52.63123 53.222588,52.631229 0 0 1 53.22259,52.63123 z"
         id="path4136-52" />
      <path
         style="fill:#000000;fill-opacity:1;stroke:#dece9c;stroke-width:30;stroke-miterlimit:4;stroke-dasharray:none;stroke-opacity:1"
         d="m 507.50829,295.21936 a 53.222588,52.631229 0 0 1 -53.22258,52.63123 53.222588,52.631229 0 0 1 -53.22259,-52.63123 53.222588,52.631229 0 0 1 53.22259,-52.63123 53.222588,52.631229 0 0 1 53.22258,52.63123 z"
         id="path4136-42" />
      <path
         style="fill:#000000;fill-opacity:1;stroke:#dece9c;stroke-width:30;stroke-miterlimit:4;stroke-dasharray:none;stroke-opacity:1"
         d="m 490.36544,440.93362 a 53.222588,52.631229 0 0 1 -53.22259,52.63123 53.222588,52.631229 0 0 1 -53.22258,-52.63123 53.222588,52.631229 0 0 1 53.22258,-52.63123 53.222588,52.631229 0 0 1 53.22259,52.63123 z"
         id="path4136-45" />
      <path
         style="fill:#000000;fill-opacity:1;stroke:#dece9c;stroke-width:30;stroke-miterlimit:4;stroke-dasharray:none;stroke-opacity:1"
         d="m 524.65115,655.21936 a 53.222588,52.631229 0 0 1 -53.22259,52.63123 53.222588,52.631229 0 0 1 -53.22259,-52.63123 53.222588,52.631229 0 0 1 53.22259,-52.63123 53.222588,52.631229 0 0 1 53.22259,52.63123 z"
         id="path4136-0" />
      <path
         style="fill:#000000;fill-opacity:1;stroke:#dece9c;stroke-width:30;stroke-miterlimit:4;stroke-dasharray:none;stroke-opacity:1"
         d="m 478.93688,693.21936 a 53.222588,52.631229 0 0 1 -53.22259,52.63123 53.222588,52.631229 0 0 1 -53.22258,-52.63123 53.222588,52.631229 0 0 1 53.22258,-52.63123 53.222588,52.631229 0 0 1 53.22259,52.63123 z"
         id="path4136-76" />
      <path
         style="fill:#000000;fill-opacity:1;stroke:#dece9c;stroke-width:30;stroke-miterlimit:4;stroke-dasharray:none;stroke-opacity:1"
         d="m 355.20373,711.68781 a 53.222588,52.631229 0 0 1 -53.22259,52.63122 53.222588,52.631229 0 0 1 -53.22259,-52.63122 53.222588,52.631229 0 0 1 53.22259,-52.63123 53.222588,52.631229 0 0 1 53.22259,52.63123 z"
         id="path4136-2" />
      <path
         style="fill:#000000;fill-opacity:1;stroke:#dece9c;stroke-width:30;stroke-miterlimit:4;stroke-dasharray:none;stroke-opacity:1"
         d="m 218.38718,693.54565 a 53.222588,52.631229 0 0 1 -53.22258,52.63123 53.222588,52.631229 0 0 1 -53.22259,-52.63123 53.222588,52.631229 0 0 1 53.22259,-52.63123 53.222588,52.631229 0 0 1 53.22258,52.63123 z"
         id="path4136-8" />
      <path
         style="fill:#000000;fill-opacity:1;stroke:#dece9c;stroke-width:30;stroke-miterlimit:4;stroke-dasharray:none;stroke-opacity:1"
         d="M 144.24506,646.58844 A 53.222588,52.631229 0 0 1 91.022469,699.21967 53.222588,52.631229 0 0 1 37.799881,646.58844 53.222588,52.631229 0 0 1 91.022469,593.95721 53.222588,52.631229 0 0 1 144.24506,646.58844 Z"
         id="path4136-29" />
      <path
         style="fill:#000000;fill-opacity:1;stroke:#dece9c;stroke-width:30;stroke-miterlimit:4;stroke-dasharray:none;stroke-opacity:1"
         d="M 154.65116,581.79077 A 53.222588,52.631229 0 0 1 101.42857,634.422 53.222588,52.631229 0 0 1 48.205986,581.79077 53.222588,52.631229 0 0 1 101.42857,529.15954 53.222588,52.631229 0 0 1 154.65116,581.79077 Z"
         id="path4136-11" />
      <path
         style="fill:#000000;fill-opacity:1;stroke:#dece9c;stroke-width:30;stroke-miterlimit:4;stroke-dasharray:none;stroke-opacity:1"
         d="M 141.63158,493.19907 A 53.222588,52.631229 0 0 1 88.408989,545.8303 53.222588,52.631229 0 0 1 35.186401,493.19907 53.222588,52.631229 0 0 1 88.408989,440.56784 53.222588,52.631229 0 0 1 141.63158,493.19907 Z"
         id="path4136-60" />
      <path
         style="fill:#000000;fill-opacity:1;stroke:#dece9c;stroke-width:30;stroke-miterlimit:4;stroke-dasharray:none;stroke-opacity:1"
         d="m 184.65116,446.64792 a 53.222588,52.631229 0 0 1 -53.22259,52.63123 53.222588,52.631229 0 0 1 -53.222584,-52.63123 53.222588,52.631229 0 0 1 53.222584,-52.63123 53.222588,52.631229 0 0 1 53.22259,52.63123 z"
         id="path4136-77" />
      <path
         style="fill:#000000;fill-opacity:1;stroke:#dece9c;stroke-width:30;stroke-miterlimit:4;stroke-dasharray:none;stroke-opacity:1"
         d="m 241.79401,480.93362 a 53.222588,52.631229 0 0 1 -53.22258,52.63123 53.222588,52.631229 0 0 1 -53.22259,-52.63123 53.222588,52.631229 0 0 1 53.22259,-52.63123 53.222588,52.631229 0 0 1 53.22258,52.63123 z"
         id="path4136-80" />
      <path
         style="fill:#000000;fill-opacity:1;stroke:#dece9c;stroke-width:30;stroke-miterlimit:4;stroke-dasharray:none;stroke-opacity:1"
         d="m 361.79403,555.21936 a 53.222588,52.631229 0 0 1 -53.22259,52.63123 53.222588,52.631229 0 0 1 -53.22259,-52.63123 53.222588,52.631229 0 0 1 53.22259,-52.63123 53.222588,52.631229 0 0 1 53.22259,52.63123 z"
         id="path4136-83" />
      <path
         style="fill:#000000;fill-opacity:1;stroke:#dece9c;stroke-width:30;stroke-miterlimit:4;stroke-dasharray:none;stroke-opacity:1"
         d="m 496.07973,543.79077 a 53.222588,52.631229 0 0 1 -53.22258,52.63123 53.222588,52.631229 0 0 1 -53.22259,-52.63123 53.222588,52.631229 0 0 1 53.22259,-52.63123 53.222588,52.631229 0 0 1 53.22258,52.63123 z"
         id="path4136-47" />
      <path
         style="fill:#000000;fill-opacity:1;stroke:#dece9c;stroke-width:30;stroke-miterlimit:4;stroke-dasharray:none;stroke-opacity:1"
         d="m 558.93688,509.50507 a 53.222588,52.631229 0 0 1 -53.22259,52.63123 53.222588,52.631229 0 0 1 -53.22258,-52.63123 53.222588,52.631229 0 0 1 53.22258,-52.63123 53.222588,52.631229 0 0 1 53.22259,52.63123 z"
         id="path4136-89" />
      <path
         style="fill:#000000;fill-opacity:1;stroke:#dece9c;stroke-width:30;stroke-miterlimit:4;stroke-dasharray:none;stroke-opacity:1"
         d="m 458.93688,380.93362 a 53.222588,52.631229 0 0 1 -53.22259,52.63123 53.222588,52.631229 0 0 1 -53.22258,-52.63123 53.222588,52.631229 0 0 1 53.22258,-52.63123 53.222588,52.631229 0 0 1 53.22259,52.63123 z"
         id="path4136-57" />
      <path
         style="fill:#000000;fill-opacity:1;stroke:#dece9c;stroke-width:30;stroke-miterlimit:4;stroke-dasharray:none;stroke-opacity:1"
         d="m 404.65115,349.50507 a 53.222588,52.631229 0 0 1 -53.22259,52.63123 53.222588,52.631229 0 0 1 -53.22259,-52.63123 53.222588,52.631229 0 0 1 53.22259,-52.63123 53.222588,52.631229 0 0 1 53.22259,52.63123 z"
         id="path4136-99" />
      <path
         style="fill:#000000;fill-opacity:1;stroke:#dece9c;stroke-width:30;stroke-miterlimit:4;stroke-dasharray:none;stroke-opacity:1"
         d="m 324.65115,240.93364 a 53.222588,52.631229 0 0 1 -53.22259,52.63123 53.222588,52.631229 0 0 1 -53.22259,-52.63123 53.222588,52.631229 0 0 1 53.22259,-52.63123 53.222588,52.631229 0 0 1 53.22259,52.63123 z"
         id="path4136-53" />
      <path
         style="fill:#000000;fill-opacity:1;stroke:#dece9c;stroke-width:30;stroke-miterlimit:4;stroke-dasharray:none;stroke-opacity:1"
         d="m 384.65115,180.93364 a 53.222588,52.631229 0 0 1 -53.22259,52.63123 53.222588,52.631229 0 0 1 -53.22259,-52.63123 53.222588,52.631229 0 0 1 53.22259,-52.63123 53.222588,52.631229 0 0 1 53.22259,52.63123 z"
         id="path4136-697" />
      <path
         style="fill:#000000;fill-opacity:1;stroke:#dece9c;stroke-width:30;stroke-miterlimit:4;stroke-dasharray:none;stroke-opacity:1"
         d="M 493.22259,195.21935 A 53.222588,52.631229 0 0 1 440,247.85057 53.222588,52.631229 0 0 1 386.77741,195.21935 53.222588,52.631229 0 0 1 440,142.58812 a 53.222588,52.631229 0 0 1 53.22259,52.63123 z"
         id="path4136-39" />
      <path
         style="fill:#000000;fill-opacity:1;stroke:#dece9c;stroke-width:30;stroke-miterlimit:4;stroke-dasharray:none;stroke-opacity:1"
         d="M 593.22259,369.50507 A 53.222588,52.631229 0 0 1 540,422.1363 53.222588,52.631229 0 0 1 486.77741,369.50507 53.222588,52.631229 0 0 1 540,316.87384 a 53.222588,52.631229 0 0 1 53.22259,52.63123 z"
         id="path4136-601" />
      <path
         style="fill:#000000;fill-opacity:1;stroke:#dece9c;stroke-width:30;stroke-miterlimit:4;stroke-dasharray:none;stroke-opacity:1"
         d="m 647.50829,540.93365 a 53.222588,52.631229 0 0 1 -53.22258,52.63123 53.222588,52.631229 0 0 1 -53.22259,-52.63123 53.222588,52.631229 0 0 1 53.22259,-52.63122 53.222588,52.631229 0 0 1 53.22258,52.63122 z"
         id="path4136-72" />
      <path
         style="fill:#000000;fill-opacity:1;stroke:#dece9c;stroke-width:30;stroke-miterlimit:4;stroke-dasharray:none;stroke-opacity:1"
         d="m 596.16387,713.60516 a 53.222588,52.631229 0 0 1 -53.22259,52.63123 53.222588,52.631229 0 0 1 -53.22258,-52.63123 53.222588,52.631229 0 0 1 53.22258,-52.63123 53.222588,52.631229 0 0 1 53.22259,52.63123 z"
         id="path4136-38" />
      <path
         style="fill:#000000;fill-opacity:1;stroke:#dece9c;stroke-width:30;stroke-miterlimit:4;stroke-dasharray:none;stroke-opacity:1"
         d="M 273.22259,169.50507 A 53.222588,52.631229 0 0 1 220,222.1363 53.222588,52.631229 0 0 1 166.77741,169.50507 53.222588,52.631229 0 0 1 220,116.87384 a 53.222588,52.631229 0 0 1 53.22259,52.63123 z"
         id="path4136-59" />
      <path
         style="fill:#000000;fill-opacity:1;stroke:#dece9c;stroke-width:30;stroke-miterlimit:4;stroke-dasharray:none;stroke-opacity:1"
         d="M 136.77444,155.62833 A 53.222588,52.631229 0 0 1 83.551849,208.25956 53.222588,52.631229 0 0 1 30.329262,155.62833 53.222588,52.631229 0 0 1 83.551849,102.9971 53.222588,52.631229 0 0 1 136.77444,155.62833 Z"
         id="path4136-948" />
      <path
         style="fill:#000000;fill-opacity:1;stroke:#dece9c;stroke-width:30;stroke-miterlimit:4;stroke-dasharray:none;stroke-opacity:1"
         d="M 686.52789,150.40425 A 53.222588,52.631229 0 0 1 633.3053,203.03548 53.222588,52.631229 0 0 1 580.08271,150.40425 53.222588,52.631229 0 0 1 633.3053,97.773022 53.222588,52.631229 0 0 1 686.52789,150.40425 Z"
         id="path4136-74" />
      <path
         style="fill:#000000;fill-opacity:1;stroke:#dece9c;stroke-width:30;stroke-miterlimit:4;stroke-dasharray:none;stroke-opacity:1"
         d="m 579.77367,594.03589 a 53.222588,52.631229 0 0 1 -53.22258,52.63123 53.222588,52.631229 0 0 1 -53.22259,-52.63123 53.222588,52.631229 0 0 1 53.22259,-52.63123 53.222588,52.631229 0 0 1 53.22258,52.63123 z"
         id="path4136-62" />
      <path
         style="fill:#000000;fill-opacity:1;stroke:#dece9c;stroke-width:30;stroke-miterlimit:4;stroke-dasharray:none;stroke-opacity:1"
         d="m 720.55633,403.4563 a 53.222588,52.631229 0 0 1 -53.22259,52.63123 53.222588,52.631229 0 0 1 -53.22259,-52.63123 53.222588,52.631229 0 0 1 53.22259,-52.63123 53.222588,52.631229 0 0 1 53.22259,52.63123 z"
         id="path4136-7-1" />
      <path
         style="fill:#000000;fill-opacity:1;stroke:#dece9c;stroke-width:30;stroke-miterlimit:4;stroke-dasharray:none;stroke-opacity:1"
         d="m 712.92327,681.57526 a 53.222588,52.631229 0 0 1 -53.22259,52.63123 53.222588,52.631229 0 0 1 -53.22258,-52.63123 53.222588,52.631229 0 0 1 53.22258,-52.63123 53.222588,52.631229 0 0 1 53.22259,52.63123 z"
         id="path4136-11-4" />
      <path
         style="fill:#000000;fill-opacity:1;stroke:#dece9c;stroke-width:30;stroke-miterlimit:4;stroke-dasharray:none;stroke-opacity:1"
         d="m 716.06615,562.67896 a 53.222588,52.631229 0 0 1 -53.22258,52.63122 53.222588,52.631229 0 0 1 -53.22259,-52.63122 53.222588,52.631229 0 0 1 53.22259,-52.63123 53.222588,52.631229 0 0 1 53.22258,52.63123 z"
         id="path4136-60-4" />
      <path
         style="fill:#000000;fill-opacity:1;stroke:#dece9c;stroke-width:30;stroke-miterlimit:4;stroke-dasharray:none;stroke-opacity:1"
         d="m 707.16839,269.55496 a 53.222588,52.631229 0 0 1 -53.22259,52.63123 53.222588,52.631229 0 0 1 -53.22259,-52.63123 53.222588,52.631229 0 0 1 53.22259,-52.63123 53.222588,52.631229 0 0 1 53.22259,52.63123 z"
         id="path4136-948-9" />
      <path
         style="fill:#000000;fill-opacity:1;stroke:#dece9c;stroke-width:30;stroke-miterlimit:4;stroke-dasharray:none;stroke-opacity:1"
         d="M 559.73248,133.34818 A 53.222588,52.631229 0 0 1 506.50989,185.9794 53.222588,52.631229 0 0 1 453.2873,133.34818 53.222588,52.631229 0 0 1 506.50989,80.716946 53.222588,52.631229 0 0 1 559.73248,133.34818 Z"
         id="path4136-2-9" />
      <path
         style="fill:#000000;fill-opacity:1;stroke:#dece9c;stroke-width:30;stroke-miterlimit:4;stroke-dasharray:none;stroke-opacity:1"
         d="m 435.0378,131.36848 a 53.222588,52.631229 0 0 1 -53.22258,52.63123 53.222588,52.631229 0 0 1 -53.22259,-52.63123 53.222588,52.631229 0 0 1 53.22259,-52.631225 53.222588,52.631229 0 0 1 53.22258,52.631225 z"
         id="path4136-8-9" />
      <path
         style="fill:#000000;fill-opacity:1;stroke:#dece9c;stroke-width:30;stroke-miterlimit:4;stroke-dasharray:none;stroke-opacity:1"
         d="M 358.87536,120.77677 A 53.222588,52.631229 0 0 1 305.65277,173.408 53.222588,52.631229 0 0 1 252.43018,120.77677 53.222588,52.631229 0 0 1 305.65277,68.145542 53.222588,52.631229 0 0 1 358.87536,120.77677 Z"
         id="path4136-29-1" />
      <path
         style="fill:#000000;fill-opacity:1;stroke:#dece9c;stroke-width:30;stroke-miterlimit:4;stroke-dasharray:none;stroke-opacity:1"
         d="m 737.51934,535.38892 a 53.222588,52.631229 0 0 1 -53.22259,52.63123 53.222588,52.631229 0 0 1 -53.22258,-52.63123 53.222588,52.631229 0 0 1 53.22258,-52.63123 53.222588,52.631229 0 0 1 53.22259,52.63123 z"
         id="path4136-2-8" />
      <path
         style="fill:#000000;fill-opacity:1;stroke:#dece9c;stroke-width:30;stroke-miterlimit:4;stroke-dasharray:none;stroke-opacity:1"
         d="M 115.82962,725.3382 A 53.222588,52.631229 0 0 1 62.607029,777.96943 53.222588,52.631229 0 0 1 9.3844414,725.3382 53.222588,52.631229 0 0 1 62.607029,672.70697 53.222588,52.631229 0 0 1 115.82962,725.3382 Z"
         id="path4136-8-8" />
      <path
         style="fill:#000000;fill-opacity:1;stroke:#dece9c;stroke-width:30;stroke-miterlimit:4;stroke-dasharray:none;stroke-opacity:1"
         d="M 126.54026,266.23877 A 53.222588,52.631229 0 0 1 73.317673,318.87 53.222588,52.631229 0 0 1 20.095085,266.23877 53.222588,52.631229 0 0 1 73.317673,213.60754 53.222588,52.631229 0 0 1 126.54026,266.23877 Z"
         id="path4136-29-6" />
      <path
         style="fill:#000000;fill-opacity:1;stroke:#dece9c;stroke-width:30;stroke-miterlimit:4;stroke-dasharray:none;stroke-opacity:1"
         d="m 590.62371,444.25037 a 53.222588,52.631229 0 0 1 -53.22259,52.63123 53.222588,52.631229 0 0 1 -53.22258,-52.63123 53.222588,52.631229 0 0 1 53.22258,-52.63123 53.222588,52.631229 0 0 1 53.22259,52.63123 z"
         id="path4136-7-1-3" />
      <path
         style="fill:#000000;fill-opacity:1;stroke:#dece9c;stroke-width:30;stroke-miterlimit:4;stroke-dasharray:none;stroke-opacity:1"
         d="m 453.24303,581.63116 a 53.222588,52.631229 0 0 1 -53.22258,52.63123 53.222588,52.631229 0 0 1 -53.22259,-52.63123 53.222588,52.631229 0 0 1 53.22259,-52.63122 53.222588,52.631229 0 0 1 53.22258,52.63122 z"
         id="path4136-7-1-9" />
      <path
         style="fill:#000000;fill-opacity:1;stroke:#dece9c;stroke-width:30;stroke-miterlimit:4;stroke-dasharray:none;stroke-opacity:1"
         d="M 247.17188,274.54477 A 53.222588,52.631229 0 0 1 193.9493,327.176 53.222588,52.631229 0 0 1 140.72671,274.54477 53.222588,52.631229 0 0 1 193.9493,221.91354 53.222588,52.631229 0 0 1 247.17188,274.54477 Z"
         id="path4136-29-1-8" />
      <path
         style="fill:#000000;fill-opacity:1;stroke:#dece9c;stroke-width:30;stroke-miterlimit:4;stroke-dasharray:none;stroke-opacity:1"
         d="m 327.98406,420.00674 a 53.222588,52.631229 0 0 1 -53.22259,52.63123 53.222588,52.631229 0 0 1 -53.22258,-52.63123 53.222588,52.631229 0 0 1 53.22258,-52.63123 53.222588,52.631229 0 0 1 53.22259,52.63123 z"
         id="path4136-29-1-9" />
      <path
         style="fill:#000000;fill-opacity:1;stroke:#dece9c;stroke-width:30;stroke-miterlimit:4;stroke-dasharray:none;stroke-opacity:1"
         d="m 253.2328,539.20471 a 53.222588,52.631229 0 0 1 -53.22259,52.63123 53.222588,52.631229 0 0 1 -53.22259,-52.63123 53.222588,52.631229 0 0 1 53.22259,-52.63123 53.222588,52.631229 0 0 1 53.22259,52.63123 z"
         id="path4136-29-1-89" />
      <path
         style="fill:#000000;fill-opacity:1;stroke:#dece9c;stroke-width:30;stroke-miterlimit:4;stroke-dasharray:none;stroke-opacity:1"
         d="m 350.20742,300.80872 a 53.222588,52.631229 0 0 1 -53.22259,52.63123 53.222588,52.631229 0 0 1 -53.22258,-52.63123 53.222588,52.631229 0 0 1 53.22258,-52.63123 53.222588,52.631229 0 0 1 53.22259,52.63123 z"
         id="path4136-29-1-7" />
      <path
         style="fill:#000000;fill-opacity:1;stroke:#dece9c;stroke-width:30;stroke-miterlimit:4;stroke-dasharray:none;stroke-opacity:1"
         d="m 332.02468,486.67679 a 53.222588,52.631229 0 0 1 -53.22259,52.63123 53.222588,52.631229 0 0 1 -53.22258,-52.63123 53.222588,52.631229 0 0 1 53.22258,-52.63123 53.222588,52.631229 0 0 1 53.22259,52.63123 z"
         id="path4136-29-1-2" />
      <path
         style="fill:#000000;fill-opacity:1;stroke:#dece9c;stroke-width:30;stroke-miterlimit:4;stroke-dasharray:none;stroke-opacity:1"
         d="M 218.88763,139.1843 A 53.222588,52.631229 0 0 1 165.66504,191.81553 53.222588,52.631229 0 0 1 112.44245,139.1843 53.222588,52.631229 0 0 1 165.66504,86.553066 53.222588,52.631229 0 0 1 218.88763,139.1843 Z"
         id="path4136-29-1-29" />
      <path
         style="fill:#000000;fill-opacity:1;stroke:#dece9c;stroke-width:30;stroke-miterlimit:4;stroke-dasharray:none;stroke-opacity:1"
         d="M 103.7302,385.66153 A 53.222588,52.631229 0 0 1 50.507614,438.29276 53.222588,52.631229 0 0 1 -2.7149734,385.66153 53.222588,52.631229 0 0 1 50.507614,333.0303 53.222588,52.631229 0 0 1 103.7302,385.66153 Z"
         id="path4136-29-1-3" />
      <path
         style="fill:#000000;fill-opacity:1;stroke:#dece9c;stroke-width:30;stroke-miterlimit:4;stroke-dasharray:none;stroke-opacity:1"
         d="m 667.39532,708.91034 a 53.222588,52.631229 0 0 1 -53.22259,52.63123 53.222588,52.631229 0 0 1 -53.22259,-52.63123 53.222588,52.631229 0 0 1 53.22259,-52.63123 53.222588,52.631229 0 0 1 53.22259,52.63123 z"
         id="path4136-29-1-81" />
      <path
         style="fill:#000000;fill-opacity:1;stroke:#dece9c;stroke-width:30;stroke-miterlimit:4;stroke-dasharray:none;stroke-opacity:1"
         d="m 437.08053,737.19458 a 53.222588,52.631229 0 0 1 -53.22259,52.63123 53.222588,52.631229 0 0 1 -53.22259,-52.63123 53.222588,52.631229 0 0 1 53.22259,-52.63123 53.222588,52.631229 0 0 1 53.22259,52.63123 z"
         id="path4136-29-1-0" />
      <path
         style="fill:#000000;fill-opacity:1;stroke:#dece9c;stroke-width:30;stroke-miterlimit:4;stroke-dasharray:none;stroke-opacity:1"
         d="m 521.93334,771.53979 a 53.222588,52.631229 0 0 1 -53.22259,52.63123 53.222588,52.631229 0 0 1 -53.22258,-52.63123 53.222588,52.631229 0 0 1 53.22258,-52.63122 53.222588,52.631229 0 0 1 53.22259,52.63122 z"
         id="path4136-29-1-4" />
      <path
         style="fill:#000000;fill-opacity:1;stroke:#dece9c;stroke-width:30;stroke-miterlimit:4;stroke-dasharray:none;stroke-opacity:1"
         d="m 279.49674,739.2149 a 53.222588,52.631229 0 0 1 -53.22259,52.63123 53.222588,52.631229 0 0 1 -53.22258,-52.63123 53.222588,52.631229 0 0 1 53.22258,-52.63122 53.222588,52.631229 0 0 1 53.22259,52.63122 z"
         id="path4136-29-1-896" />
    </g>
    <path
       style="opacity:1;fill:none;fill-opacity:1;stroke:none;stroke-width:10;stroke-linecap:round;stroke-linejoin:round;stroke-miterlimit:4;stroke-dasharray:none;stroke-opacity:1"
       d="m 43.654922,118.18946 639.999998,0 0,640 -639.999998,0 z"
       id="rect4136"
       inkscape:export-xdpi="9"
       inkscape:export-ydpi="9" />
    <path
       inkscape:connector-curvature="0"
       style="fill:#2e79ba;fill-opacity:1;stroke:#dece9c;stroke-width:30;stroke-miterlimit:4;stroke-dasharray:none;stroke-opacity:1"
       d="m 166.35967,183.63102 a 53.222588,52.631229 0 0 1 -53.22259,52.63123 53.222588,52.631229 0 0 1 -53.222576,-52.63123 53.222588,52.631229 0 0 1 53.222576,-52.63122 53.222588,52.631229 0 0 1 53.22259,52.63122 z"
       id="path4136-29-1-4-6" />
    <path
       inkscape:connector-curvature="0"
       style="fill:#a21232;fill-opacity:1;stroke:#dece9c;stroke-width:30;stroke-miterlimit:4;stroke-dasharray:none;stroke-opacity:1"
       d="m 483.54757,286.66657 a 53.222588,52.631229 0 0 1 -53.2226,52.63123 53.222588,52.631229 0 0 1 -53.22257,-52.63123 53.222588,52.631229 0 0 1 53.22257,-52.63122 53.222588,52.631229 0 0 1 53.2226,52.63122 z"
       id="path4136-29-1-4-6-7" />
    <path
       inkscape:connector-curvature="0"
       style="fill:#a21232;fill-opacity:1;stroke:#dece9c;stroke-width:30;stroke-miterlimit:4;stroke-dasharray:none;stroke-opacity:1"
       d="m 396.67445,337.1742 a 53.222588,52.631229 0 0 1 -53.2226,52.63123 53.222588,52.631229 0 0 1 -53.22257,-52.63123 53.222588,52.631229 0 0 1 53.22257,-52.63122 53.222588,52.631229 0 0 1 53.2226,52.63122 z"
       id="path4136-29-1-4-6-7-6" />
    <path
       inkscape:connector-curvature="0"
       style="fill:#a21232;fill-opacity:1;stroke:#dece9c;stroke-width:30;stroke-miterlimit:4;stroke-dasharray:none;stroke-opacity:1"
       d="m 445.16177,575.57021 a 53.222588,52.631229 0 0 1 -53.2226,52.63123 53.222588,52.631229 0 0 1 -53.22257,-52.63123 53.222588,52.631229 0 0 1 53.22257,-52.63122 53.222588,52.631229 0 0 1 53.2226,52.63122 z"
       id="path4136-29-1-4-6-7-0" />
    <path
       inkscape:connector-curvature="0"
       style="fill:#a21232;fill-opacity:1;stroke:#dece9c;stroke-width:30;stroke-miterlimit:4;stroke-dasharray:none;stroke-opacity:1"
       d="m 289.59828,561.42806 a 53.222588,52.631229 0 0 1 -53.2226,52.63123 53.222588,52.631229 0 0 1 -53.22257,-52.63123 53.222588,52.631229 0 0 1 53.22257,-52.63122 53.222588,52.631229 0 0 1 53.2226,52.63122 z"
       id="path4136-29-1-4-6-7-7" />
    <path
       inkscape:connector-curvature="0"
       style="fill:#a21232;fill-opacity:1;stroke:#dece9c;stroke-width:30;stroke-miterlimit:4;stroke-dasharray:none;stroke-opacity:1"
       d="m 245.15157,345.25542 a 53.222588,52.631229 0 0 1 -53.2226,52.63123 53.222588,52.631229 0 0 1 -53.22257,-52.63123 53.222588,52.631229 0 0 1 53.22257,-52.63122 53.222588,52.631229 0 0 1 53.2226,52.63122 z"
       id="path4136-29-1-4-6-7-71" />
    <path
       inkscape:connector-curvature="0"
       style="fill:#a21232;fill-opacity:1;stroke:#dece9c;stroke-width:30;stroke-miterlimit:4;stroke-dasharray:none;stroke-opacity:1"
       d="m 426.97903,185.65132 a 53.222588,52.631229 0 0 1 -53.2226,52.63123 53.222588,52.631229 0 0 1 -53.22257,-52.63123 53.222588,52.631229 0 0 1 53.22257,-52.63122 53.222588,52.631229 0 0 1 53.2226,52.63122 z"
       id="path4136-29-1-4-6-7-05" />
    <path
       inkscape:connector-curvature="0"
       style="fill:#a21232;fill-opacity:1;stroke:#dece9c;stroke-width:30;stroke-miterlimit:4;stroke-dasharray:none;stroke-opacity:1"
       d="m 671.43593,577.5905 a 53.222588,52.631229 0 0 1 -53.2226,52.63123 53.222588,52.631229 0 0 1 -53.22257,-52.63123 53.222588,52.631229 0 0 1 53.22257,-52.63122 53.222588,52.631229 0 0 1 53.2226,52.63122 z"
       id="path4136-29-1-4-6-7-06" />
    <path
       inkscape:connector-curvature="0"
       style="fill:#a21232;fill-opacity:1;stroke:#dece9c;stroke-width:30;stroke-miterlimit:4;stroke-dasharray:none;stroke-opacity:1"
       d="m 645.17197,688.70729 a 53.222588,52.631229 0 0 1 -53.2226,52.63123 53.222588,52.631229 0 0 1 -53.22257,-52.63123 53.222588,52.631229 0 0 1 53.22257,-52.63122 53.222588,52.631229 0 0 1 53.2226,52.63122 z"
       id="path4136-29-1-4-6-7-1" />
    <path
       inkscape:connector-curvature="0"
       style="fill:#a21232;fill-opacity:1;stroke:#dece9c;stroke-width:30;stroke-miterlimit:4;stroke-dasharray:none;stroke-opacity:1"
       d="m 554.25825,551.32654 a 53.222588,52.631229 0 0 1 -53.2226,52.63123 53.222588,52.631229 0 0 1 -53.22257,-52.63123 53.222588,52.631229 0 0 1 53.22257,-52.63122 53.222588,52.631229 0 0 1 53.2226,52.63122 z"
       id="path4136-29-1-4-6-7-9" />
    <path
       inkscape:connector-curvature="0"
       style="fill:#a21232;fill-opacity:1;stroke:#dece9c;stroke-width:30;stroke-miterlimit:4;stroke-dasharray:none;stroke-opacity:1"
       d="m 641.13136,238.17925 a 53.222588,52.631229 0 0 1 -53.2226,52.63123 53.222588,52.631229 0 0 1 -53.22257,-52.63123 53.222588,52.631229 0 0 1 53.22257,-52.63122 53.222588,52.631229 0 0 1 53.2226,52.63122 z"
       id="path4136-29-1-4-6-7-79" />
    <path
       inkscape:connector-curvature="0"
       style="fill:#a21232;fill-opacity:1;stroke:#dece9c;stroke-width:30;stroke-miterlimit:4;stroke-dasharray:none;stroke-opacity:1"
       d="m 659.31411,361.41787 a 53.222588,52.631229 0 0 1 -53.2226,52.63123 53.222588,52.631229 0 0 1 -53.22257,-52.63123 53.222588,52.631229 0 0 1 53.22257,-52.63122 53.222588,52.631229 0 0 1 53.2226,52.63122 z"
       id="path4136-29-1-4-6-7-17" />
    <path
       inkscape:connector-curvature="0"
       style="fill:#a21232;fill-opacity:1;stroke:#dece9c;stroke-width:30;stroke-miterlimit:4;stroke-dasharray:none;stroke-opacity:1"
       d="m 503.75062,434.14885 a 53.222588,52.631229 0 0 1 -53.2226,52.63123 53.222588,52.631229 0 0 1 -53.22257,-52.63123 53.222588,52.631229 0 0 1 53.22257,-52.63122 53.222588,52.631229 0 0 1 53.2226,52.63122 z"
       id="path4136-29-1-4-6-7-00" />
    <path
       inkscape:connector-curvature="0"
       style="fill:#a21232;fill-opacity:1;stroke:#dece9c;stroke-width:30;stroke-miterlimit:4;stroke-dasharray:none;stroke-opacity:1"
       d="m 370.41048,694.7682 a 53.222588,52.631229 0 0 1 -53.2226,52.63123 53.222588,52.631229 0 0 1 -53.22257,-52.63123 53.222588,52.631229 0 0 1 53.22257,-52.63122 53.222588,52.631229 0 0 1 53.2226,52.63122 z"
       id="path4136-29-1-4-6-7-02" />
    <path
       inkscape:connector-curvature="0"
       style="fill:#a21232;fill-opacity:1;stroke:#dece9c;stroke-width:30;stroke-miterlimit:4;stroke-dasharray:none;stroke-opacity:1"
       d="m 192.62364,676.58546 a 53.222588,52.631229 0 0 1 -53.2226,52.63123 53.222588,52.631229 0 0 1 -53.222575,-52.63123 53.222588,52.631229 0 0 1 53.222575,-52.63122 53.222588,52.631229 0 0 1 53.2226,52.63122 z"
       id="path4136-29-1-4-6-7-95" />
    <path
       inkscape:connector-curvature="0"
       style="fill:#a21232;fill-opacity:1;stroke:#dece9c;stroke-width:30;stroke-miterlimit:4;stroke-dasharray:none;stroke-opacity:1"
       d="m 156.25814,561.42807 a 53.222588,52.631229 0 0 1 -53.2226,52.63123 53.222588,52.631229 0 0 1 -53.222566,-52.63123 53.222588,52.631229 0 0 1 53.222566,-52.63122 53.222588,52.631229 0 0 1 53.2226,52.63122 z"
       id="path4136-29-1-4-6-7-2" />
    <path
       inkscape:connector-curvature="0"
       style="fill:#a21232;fill-opacity:1;stroke:#dece9c;stroke-width:30;stroke-miterlimit:4;stroke-dasharray:none;stroke-opacity:1"
       d="M 160.29876,415.9661 A 53.222588,52.631229 0 0 1 107.07615,468.59733 53.222588,52.631229 0 0 1 53.853584,415.9661 53.222588,52.631229 0 0 1 107.07615,363.33488 53.222588,52.631229 0 0 1 160.29876,415.9661 Z"
       id="path4136-29-1-4-6-7-27" />
    <path
       inkscape:connector-curvature="0"
       style="fill:#a21232;fill-opacity:1;stroke:#dece9c;stroke-width:30;stroke-miterlimit:4;stroke-dasharray:none;stroke-opacity:1"
       d="m 283.53736,203.83407 a 53.222588,52.631229 0 0 1 -53.2226,52.63123 53.222588,52.631229 0 0 1 -53.22257,-52.63123 53.222588,52.631229 0 0 1 53.22257,-52.63122 53.222588,52.631229 0 0 1 53.2226,52.63122 z"
       id="path4136-29-1-4-6-7-61" />
    <path
       inkscape:connector-curvature="0"
       style="fill:#a21232;fill-opacity:1;stroke:#dece9c;stroke-width:30;stroke-miterlimit:4;stroke-dasharray:none;stroke-opacity:1"
       d="m 174.44089,274.54475 a 53.222588,52.631229 0 0 1 -53.2226,52.63123 53.222588,52.631229 0 0 1 -53.22257,-52.63123 53.222588,52.631229 0 0 1 53.22257,-52.63122 53.222588,52.631229 0 0 1 53.2226,52.63122 z"
       id="path4136-29-1-4-6-7-62" />
    <path
       inkscape:connector-curvature="0"
       style="fill:#2e79ba;fill-opacity:1;stroke:#dece9c;stroke-width:30;stroke-miterlimit:4;stroke-dasharray:none;stroke-opacity:1"
       d="m 342.12621,179.59041 a 53.222588,52.631229 0 0 1 -53.22259,52.63123 53.222588,52.631229 0 0 1 -53.22258,-52.63123 53.222588,52.631229 0 0 1 53.22258,-52.63122 53.222588,52.631229 0 0 1 53.22259,52.63122 z"
       id="path4136-29-1-4-6-3" />
    <path
       inkscape:connector-curvature="0"
       style="fill:#2e79ba;fill-opacity:1;stroke:#dece9c;stroke-width:30;stroke-miterlimit:4;stroke-dasharray:none;stroke-opacity:1"
       d="m 542.13641,181.61071 a 53.222588,52.631229 0 0 1 -53.22259,52.63123 53.222588,52.631229 0 0 1 -53.22258,-52.63123 53.222588,52.631229 0 0 1 53.22258,-52.63122 53.222588,52.631229 0 0 1 53.22259,52.63122 z"
       id="path4136-29-1-4-6-2" />
    <path
       inkscape:connector-curvature="0"
       style="fill:#2e79ba;fill-opacity:1;stroke:#dece9c;stroke-width:30;stroke-miterlimit:4;stroke-dasharray:none;stroke-opacity:1"
       d="m 673.45625,183.63102 a 53.222588,52.631229 0 0 1 -53.22259,52.63123 53.222588,52.631229 0 0 1 -53.22258,-52.63123 53.222588,52.631229 0 0 1 53.22258,-52.63122 53.222588,52.631229 0 0 1 53.22259,52.63122 z"
       id="path4136-29-1-4-6-21" />
    <path
       inkscape:connector-curvature="0"
       style="fill:#2e79ba;fill-opacity:1;stroke:#dece9c;stroke-width:30;stroke-miterlimit:4;stroke-dasharray:none;stroke-opacity:1"
       d="m 669.41563,306.86963 a 53.222588,52.631229 0 0 1 -53.22259,52.63123 53.222588,52.631229 0 0 1 -53.22258,-52.63123 53.222588,52.631229 0 0 1 53.22258,-52.63122 53.222588,52.631229 0 0 1 53.22259,52.63122 z"
       id="path4136-29-1-4-6-5" />
    <path
       inkscape:connector-curvature="0"
       style="fill:#2e79ba;fill-opacity:1;stroke:#dece9c;stroke-width:30;stroke-miterlimit:4;stroke-dasharray:none;stroke-opacity:1"
       d="m 556.27855,367.47878 a 53.222588,52.631229 0 0 1 -53.2226,52.63123 53.222588,52.631229 0 0 1 -53.22257,-52.63123 53.222588,52.631229 0 0 1 53.22257,-52.63122 53.222588,52.631229 0 0 1 53.2226,52.63122 z"
       id="path4136-29-1-4-6-1" />
    <path
       inkscape:connector-curvature="0"
       style="fill:#2e79ba;fill-opacity:1;stroke:#dece9c;stroke-width:30;stroke-miterlimit:4;stroke-dasharray:none;stroke-opacity:1"
       d="m 612.84709,448.29098 a 53.222588,52.631229 0 0 1 -53.22259,52.63123 53.222588,52.631229 0 0 1 -53.22258,-52.63123 53.222588,52.631229 0 0 1 53.22258,-52.63122 53.222588,52.631229 0 0 1 53.22259,52.63122 z"
       id="path4136-29-1-4-6-0" />
    <path
       inkscape:connector-curvature="0"
       style="fill:#2e79ba;fill-opacity:1;stroke:#dece9c;stroke-width:30;stroke-miterlimit:4;stroke-dasharray:none;stroke-opacity:1"
       d="m 354.24805,484.65647 a 53.222588,52.631229 0 0 1 -53.2226,52.63123 53.222588,52.631229 0 0 1 -53.22257,-52.63123 53.222588,52.631229 0 0 1 53.22257,-52.63122 53.222588,52.631229 0 0 1 53.2226,52.63122 z"
       id="path4136-29-1-4-6-6" />
    <path
       inkscape:connector-curvature="0"
       style="fill:#2e79ba;fill-opacity:1;stroke:#dece9c;stroke-width:30;stroke-miterlimit:4;stroke-dasharray:none;stroke-opacity:1"
       d="m 210.80638,442.23007 a 53.222588,52.631229 0 0 1 -53.22259,52.63123 53.222588,52.631229 0 0 1 -53.22258,-52.63123 53.222588,52.631229 0 0 1 53.22258,-52.63122 53.222588,52.631229 0 0 1 53.22259,52.63122 z"
       id="path4136-29-1-4-6-18" />
    <path
       inkscape:connector-curvature="0"
       style="fill:#2e79ba;fill-opacity:1;stroke:#dece9c;stroke-width:30;stroke-miterlimit:4;stroke-dasharray:none;stroke-opacity:1"
       d="m 271.41553,617.99661 a 53.222588,52.631229 0 0 1 -53.22259,52.63123 53.222588,52.631229 0 0 1 -53.22258,-52.63123 53.222588,52.631229 0 0 1 53.22258,-52.63122 53.222588,52.631229 0 0 1 53.22259,52.63122 z"
       id="path4136-29-1-4-6-69" />
    <path
       inkscape:connector-curvature="0"
       style="fill:#2e79ba;fill-opacity:1;stroke:#dece9c;stroke-width:30;stroke-miterlimit:4;stroke-dasharray:none;stroke-opacity:1"
       d="m 511.83184,680.62607 a 53.222588,52.631229 0 0 1 -53.2226,52.63123 53.222588,52.631229 0 0 1 -53.22257,-52.63123 53.222588,52.631229 0 0 1 53.22257,-52.63122 53.222588,52.631229 0 0 1 53.2226,52.63122 z"
       id="path4136-29-1-4-6-9" />
    <path
       inkscape:connector-curvature="0"
       style="fill:#2e79ba;fill-opacity:1;stroke:#dece9c;stroke-width:30;stroke-miterlimit:4;stroke-dasharray:none;stroke-opacity:1"
       d="m 483.54757,498.79861 a 53.222588,52.631229 0 0 1 -53.2226,52.63123 53.222588,52.631229 0 0 1 -53.22257,-52.63123 53.222588,52.631229 0 0 1 53.22257,-52.63122 53.222588,52.631229 0 0 1 53.2226,52.63122 z"
       id="path4136-29-1-4-6-68" />
  </g>
</svg>
