<?xml version="1.0" encoding="UTF-8" standalone="no"?>
<!-- Created with Inkscape (http://www.inkscape.org/) -->

<svg
   xmlns:dc="http://purl.org/dc/elements/1.1/"
   xmlns:cc="http://creativecommons.org/ns#"
   xmlns:rdf="http://www.w3.org/1999/02/22-rdf-syntax-ns#"
   xmlns:svg="http://www.w3.org/2000/svg"
   xmlns="http://www.w3.org/2000/svg"
   xmlns:sodipodi="http://sodipodi.sourceforge.net/DTD/sodipodi-0.dtd"
   xmlns:inkscape="http://www.inkscape.org/namespaces/inkscape"
   width="210mm"
   height="297mm"
   viewBox="0 0 744.09448819 1052.3622047"
   id="svg2"
   version="1.1"
   inkscape:version="0.91 r"
   sodipodi:docname="cell_wall2.svg">
  <defs
     id="defs4" />
  <sodipodi:namedview
     id="base"
     pagecolor="#ffffff"
     bordercolor="#666666"
     borderopacity="1.0"
     inkscape:pageopacity="0.0"
     inkscape:pageshadow="2"
     inkscape:zoom="0.49497475"
     inkscape:cx="26.527067"
     inkscape:cy="604.5404"
     inkscape:document-units="px"
     inkscape:current-layer="layer1"
     showgrid="false"
     inkscape:window-width="1366"
     inkscape:window-height="713"
     inkscape:window-x="0"
     inkscape:window-y="30"
     inkscape:window-maximized="1" />
  <metadata
     id="metadata7">
    <rdf:RDF>
      <cc:Work
         rdf:about="">
        <dc:format>image/svg+xml</dc:format>
        <dc:type
           rdf:resource="http://purl.org/dc/dcmitype/StillImage" />
        <dc:title></dc:title>
      </cc:Work>
    </rdf:RDF>
  </metadata>
  <g
     inkscape:label="Capa 1"
     inkscape:groupmode="layer"
     id="layer1">
    <g
       id="g4784"
       style="stroke:#000000;stroke-opacity:1"
       transform="translate(-6,0)">
      <g
         id="g4802"
         style="stroke:#000000;stroke-opacity:1">
        <path
           style="opacity:1;fill:none;fill-opacity:1;stroke:#000000;stroke-width:27.6343174;stroke-linecap:round;stroke-linejoin:round;stroke-miterlimit:4;stroke-dasharray:none;stroke-opacity:1"
           d="m 498.07608,544.34668 c -4.91072,9.6599 -62.5867,10.16848 -67.30829,0.56927 -4.72158,-9.59921 -44.43867,-112.22046 -44.32245,-127.90595 0.11622,-15.68549 41.75495,-214.50006 47.76708,-220.4742 6.01213,-5.97415 83.67209,18.9728 89.03599,27.8383 5.3639,8.86549 47.07019,119.70176 47.13661,135.87191 0.0664,16.17015 -67.3982,174.44079 -72.30894,184.10067 z"
           id="path3653"
           inkscape:connector-curvature="0"
           sodipodi:nodetypes="sssssss"
           inkscape:export-filename="/home/blackquiltro/Dropbox/BlackQuiltro/Games/GodotJam/Game/Maze/tile_wall2.png"
           inkscape:export-xdpi="8.4491024"
           inkscape:export-ydpi="8.4491024" />
        <path
           style="opacity:1;fill:none;fill-opacity:1;stroke:#000000;stroke-width:28.56995964;stroke-linecap:round;stroke-linejoin:round;stroke-miterlimit:4;stroke-dasharray:none;stroke-opacity:1"
           d="m 653.863,797.67632 c -4.82073,10.51787 -98.88862,8.20502 -103.52367,-2.24678 -4.63504,-10.4518 -28.12803,-203.88601 -28.01395,-220.96467 0.11408,-17.07864 73.65388,-202.1464 81.75792,-204.22372 3.35962,-0.86117 63.39893,13.52491 69.32527,21.71103 6.36815,8.79641 25.54595,203.43193 25.61116,221.03829 0.0651,17.60635 -40.33601,174.16799 -45.15673,184.68585 z"
           id="path3653-5"
           inkscape:connector-curvature="0"
           sodipodi:nodetypes="sssssss"
           inkscape:export-filename="/home/blackquiltro/Dropbox/BlackQuiltro/Games/GodotJam/Game/Maze/tile_wall2.png"
           inkscape:export-xdpi="8.4491024"
           inkscape:export-ydpi="8.4491024" />
        <path
           style="opacity:1;fill:none;fill-opacity:1;stroke:#000000;stroke-width:30.77528381;stroke-linecap:round;stroke-linejoin:round;stroke-miterlimit:4;stroke-dasharray:none;stroke-opacity:1"
           d="m 343.20219,798.65974 c -5.62356,10.46199 -73.17799,26.69536 -78.58494,16.29911 -5.40694,-10.39627 -32.81239,-93.02472 -32.6793,-110.01264 0.13309,-16.9879 70.41198,-247.99324 77.29681,-254.46343 6.88483,-6.47021 43.09356,-22.22246 49.23606,-12.62083 6.1425,9.60163 53.90273,146.74922 53.97879,164.26203 0.076,17.51281 -63.62386,186.07378 -69.24742,196.53576 z"
           id="path3653-8"
           inkscape:connector-curvature="0"
           sodipodi:nodetypes="sssssss"
           inkscape:export-filename="/home/blackquiltro/Dropbox/BlackQuiltro/Games/GodotJam/Game/Maze/tile_wall2.png"
           inkscape:export-xdpi="8.4491024"
           inkscape:export-ydpi="8.4491024" />
        <path
           style="opacity:1;fill:none;fill-opacity:1;stroke:#000000;stroke-width:31.55176544;stroke-linecap:round;stroke-linejoin:round;stroke-miterlimit:4;stroke-dasharray:none;stroke-opacity:1"
           d="M 230.72437,643.933 C 224.90825,654.5655 100.51119,571.08768 94.9191,560.52198 89.327006,549.95628 57.867187,442.79835 58.004819,425.53355 c 0.137643,-17.26476 13.619624,-236.09689 20.74019,-242.67254 7.120575,-6.57566 106.888531,-0.85078 113.241361,8.90734 6.35284,9.75811 88.46614,212.89361 88.5448,230.69185 0.0786,17.79824 -43.99068,210.84031 -49.8068,221.4728 z"
           id="path3653-6"
           inkscape:connector-curvature="0"
           sodipodi:nodetypes="sssssss"
           inkscape:export-filename="/home/blackquiltro/Dropbox/BlackQuiltro/Games/GodotJam/Game/Maze/tile_wall2.png"
           inkscape:export-xdpi="8.4491024"
           inkscape:export-ydpi="8.4491024" />
        <path
           style="opacity:1;fill:none;fill-opacity:1;stroke:#000000;stroke-width:31.01151085;stroke-linecap:round;stroke-linejoin:round;stroke-miterlimit:4;stroke-dasharray:none;stroke-opacity:1"
           d="m 505.53743,818.75659 c -5.51283,10.83661 -111.60891,6.97691 -116.90939,-3.79161 -5.30048,-10.76853 -29.21277,-7.7514 -29.08231,-25.34762 0.13046,-17.59619 55.73479,-197.80375 62.48404,-204.50562 6.74925,-6.70189 65.87279,-14.15776 71.89433,-4.21231 6.02155,9.94542 20.35303,75.21354 20.4276,93.35345 0.0745,18.1399 -3.30145,133.6671 -8.81427,144.50371 z"
           id="path3653-6-5"
           inkscape:connector-curvature="0"
           sodipodi:nodetypes="sssssss"
           inkscape:export-filename="/home/blackquiltro/Dropbox/BlackQuiltro/Games/GodotJam/Game/Maze/tile_wall2.png"
           inkscape:export-xdpi="8.4491024"
           inkscape:export-ydpi="8.4491024" />
        <path
           style="opacity:1;fill:none;fill-opacity:1;stroke:#000000;stroke-width:28.45474434;stroke-linecap:round;stroke-linejoin:round;stroke-miterlimit:4;stroke-dasharray:none;stroke-opacity:1"
           d="m 665.57354,349.9704 c -4.9125,10.23832 -86.29585,27.51984 -91.01913,17.34585 -4.72326,-10.174 -40.5068,-107.77842 -40.39055,-124.40315 0.11626,-16.6247 19.39915,-51.54786 25.41343,-57.87973 6.01428,-6.33187 91.59767,-3.60965 96.9635,5.78671 5.36582,9.39635 24.71629,59.89935 24.78274,77.03775 0.0664,17.13841 -10.83749,71.87425 -15.74999,82.11257 z"
           id="path3653-6-5-7"
           inkscape:connector-curvature="0"
           sodipodi:nodetypes="sssssss"
           inkscape:export-filename="/home/blackquiltro/Dropbox/BlackQuiltro/Games/GodotJam/Game/Maze/tile_wall2.png"
           inkscape:export-xdpi="8.4491024"
           inkscape:export-ydpi="8.4491024" />
        <path
           style="opacity:1;fill:none;fill-opacity:1;stroke:#000000;stroke-width:29.18816948;stroke-linecap:round;stroke-linejoin:round;stroke-miterlimit:4;stroke-dasharray:none;stroke-opacity:1"
           d="m 201.32088,808.44036 c -5.03141,10.51831 -89.73247,5.33862 -94.57008,-5.1136 -4.8376,-10.45222 -32.052844,-51.95795 -31.933781,-69.03732 0.119073,-17.07934 15.825385,-156.15963 21.98524,-162.66465 6.159861,-6.50503 123.466031,75.12658 128.961731,84.7799 5.49571,9.6533 3.7501,74.43767 3.81815,92.04475 0.068,17.60709 -23.22985,49.47262 -28.26126,59.99092 z"
           id="path3653-6-5-2"
           inkscape:connector-curvature="0"
           sodipodi:nodetypes="sssssss"
           inkscape:export-filename="/home/blackquiltro/Dropbox/BlackQuiltro/Games/GodotJam/Game/Maze/tile_wall2.png"
           inkscape:export-xdpi="8.4491024"
           inkscape:export-ydpi="8.4491024" />
        <path
           style="opacity:1;fill:none;fill-opacity:1;stroke:#000000;stroke-width:32.63002777;stroke-linecap:round;stroke-linejoin:round;stroke-miterlimit:4;stroke-dasharray:none;stroke-opacity:1"
           d="m 359.35665,428.89139 c -5.7565,11.48942 -45.60962,16.7914 -51.1444,5.37418 -5.53476,-11.41723 -69.05437,-139.73701 -68.91814,-158.39324 0.13623,-18.65618 18.98556,-93.13501 18.98556,-93.13501 9.92113,-0.46866 128.92301,-8.74783 135.21073,1.79673 6.28771,10.54455 -4.96156,71.91598 -4.8837,91.14863 0.0778,19.23267 -26.73426,120.00195 -27.708,132.85463 z"
           id="path3653-6-5-0"
           inkscape:connector-curvature="0"
           sodipodi:nodetypes="cssssssc"
           inkscape:export-filename="/home/blackquiltro/Dropbox/BlackQuiltro/Games/GodotJam/Game/Maze/tile_wall2.png"
           inkscape:export-xdpi="8.4491024"
           inkscape:export-ydpi="8.4491024" />
        <ellipse
           style="opacity:1;fill:#000000;fill-opacity:1;stroke:#000000;stroke-width:8.27586174;stroke-linecap:round;stroke-linejoin:round;stroke-miterlimit:4;stroke-dasharray:none;stroke-opacity:1"
           id="path4595"
           cx="145.24631"
           cy="703.07648"
           rx="11.82266"
           ry="13.004927"
           inkscape:export-filename="/home/blackquiltro/Dropbox/BlackQuiltro/Games/GodotJam/Game/Maze/tile_wall2.png"
           inkscape:export-xdpi="8.4491024"
           inkscape:export-ydpi="8.4491024" />
        <ellipse
           style="opacity:1;fill:#000000;fill-opacity:1;stroke:#000000;stroke-width:7.58620691;stroke-linecap:round;stroke-linejoin:round;stroke-miterlimit:4;stroke-dasharray:none;stroke-opacity:1"
           id="path4595-2"
           cx="593.91626"
           cy="213.07649"
           rx="10.837439"
           ry="11.921183"
           inkscape:export-filename="/home/blackquiltro/Dropbox/BlackQuiltro/Games/GodotJam/Game/Maze/tile_wall2.png"
           inkscape:export-xdpi="8.4491024"
           inkscape:export-ydpi="8.4491024" />
        <ellipse
           style="opacity:1;fill:#000000;fill-opacity:1;stroke:#000000;stroke-width:7.58620691;stroke-linecap:round;stroke-linejoin:round;stroke-miterlimit:4;stroke-dasharray:none;stroke-opacity:1"
           id="path4595-2-9"
           cx="455.71429"
           cy="398.07651"
           rx="10.837439"
           ry="11.921183"
           inkscape:export-filename="/home/blackquiltro/Dropbox/BlackQuiltro/Games/GodotJam/Game/Maze/tile_wall2.png"
           inkscape:export-xdpi="8.4491024"
           inkscape:export-ydpi="8.4491024" />
        <ellipse
           style="opacity:1;fill:#000000;fill-opacity:1;stroke:#000000;stroke-width:7.58620691;stroke-linecap:round;stroke-linejoin:round;stroke-miterlimit:4;stroke-dasharray:none;stroke-opacity:1"
           id="path4595-2-6"
           cx="168.57143"
           cy="423.79077"
           rx="10.837439"
           ry="11.921183"
           inkscape:export-filename="/home/blackquiltro/Dropbox/BlackQuiltro/Games/GodotJam/Game/Maze/tile_wall2.png"
           inkscape:export-xdpi="8.4491024"
           inkscape:export-ydpi="8.4491024" />
        <ellipse
           style="opacity:1;fill:#000000;fill-opacity:1;stroke:#000000;stroke-width:7.58620691;stroke-linecap:round;stroke-linejoin:round;stroke-miterlimit:4;stroke-dasharray:none;stroke-opacity:1"
           id="path4595-2-9-0"
           cx="625.71429"
           cy="605.21936"
           rx="10.837439"
           ry="11.921183"
           inkscape:export-filename="/home/blackquiltro/Dropbox/BlackQuiltro/Games/GodotJam/Game/Maze/tile_wall2.png"
           inkscape:export-xdpi="8.4491024"
           inkscape:export-ydpi="8.4491024" />
        <ellipse
           style="opacity:1;fill:#000000;fill-opacity:1;stroke:#000000;stroke-width:8.27586174;stroke-linecap:round;stroke-linejoin:round;stroke-miterlimit:4;stroke-dasharray:none;stroke-opacity:1"
           id="path4595-5"
           cx="322.85715"
           cy="639.50507"
           rx="11.82266"
           ry="13.004927"
           inkscape:export-filename="/home/blackquiltro/Dropbox/BlackQuiltro/Games/GodotJam/Game/Maze/tile_wall2.png"
           inkscape:export-xdpi="8.4491024"
           inkscape:export-ydpi="8.4491024" />
        <ellipse
           style="opacity:1;fill:#000000;fill-opacity:1;stroke:#000000;stroke-width:8.27586174;stroke-linecap:round;stroke-linejoin:round;stroke-miterlimit:4;stroke-dasharray:none;stroke-opacity:1"
           id="path4595-29"
           cx="450"
           cy="752.36218"
           rx="11.82266"
           ry="13.004927"
           inkscape:export-filename="/home/blackquiltro/Dropbox/BlackQuiltro/Games/GodotJam/Game/Maze/tile_wall2.png"
           inkscape:export-xdpi="8.4491024"
           inkscape:export-ydpi="8.4491024" />
        <ellipse
           style="opacity:1;fill:#000000;fill-opacity:1;stroke:#000000;stroke-width:8.27586174;stroke-linecap:round;stroke-linejoin:round;stroke-miterlimit:4;stroke-dasharray:none;stroke-opacity:1"
           id="path4595-7"
           cx="308.57141"
           cy="290.93362"
           rx="11.82266"
           ry="13.004927"
           inkscape:export-filename="/home/blackquiltro/Dropbox/BlackQuiltro/Games/GodotJam/Game/Maze/tile_wall2.png"
           inkscape:export-xdpi="8.4491024"
           inkscape:export-ydpi="8.4491024" />
      </g>
    </g>
  </g>
</svg>
